<?xml version="1.0" encoding="utf-8"?>
<!-- Generator: Adobe Illustrator 19.1.0, SVG Export Plug-In . SVG Version: 6.00 Build 0)  -->
<!DOCTYPE svg PUBLIC "-//W3C//DTD SVG 1.1//EN" "http://www.w3.org/Graphics/SVG/1.1/DTD/svg11.dtd">
<svg version="1.1" id="Layer_1" xmlns="http://www.w3.org/2000/svg" xmlns:xlink="http://www.w3.org/1999/xlink" x="0px" y="0px"
	 viewBox="-233 266.6 97.3 63.7" style="enable-background:new -233 266.6 97.3 63.7;" xml:space="preserve">
<style type="text/css">
	.st0{fill:#FFFFFF;}
</style>
<g id="Layer_1_1_">
</g>
<g id="_x2014_ÎÓÈ_x5F_1">
	<g>
		<path class="st0" d="M-148.2,294.9c-2.8-1.9-6.5-1.2-8.4,1.6c-1.9,2.8-1.2,6.5,1.6,8.4c2.8,1.9,6.5,1.2,8.4-1.6
			C-144.7,300.5-145.4,296.8-148.2,294.9z M-154.6,304.4c-2.5-1.7-3.1-5.1-1.5-7.6s5.1-3.1,7.6-1.5c2.5,1.7,3.1,5.1,1.5,7.6
			C-148.7,305.4-152.1,306.1-154.6,304.4z"/>
		<path class="st0" d="M-147.4,308.6l0.9-0.4l-0.4-1.7c0.4-0.3,0.7-0.6,1.1-0.9l1.7,0.7l0.6-0.8l0.6-0.8l-1.2-1.3
			c0.2-0.4,0.4-0.9,0.5-1.3l1.8-0.3l0.1-1l0.1-1l-1.7-0.5c0-0.5-0.1-0.9-0.3-1.4l1.4-1.1l-0.4-0.9l-0.4-0.9l-1.7,0.4
			c-0.3-0.4-0.6-0.7-0.9-1.1l0.7-1.7l-0.8-0.6l-0.8-0.6l-1.3,1.2c-0.4-0.2-0.9-0.4-1.3-0.5l-0.3-1.8l-1-0.1l-1-0.1l-0.5,1.7
			c-0.5,0-0.9,0.1-1.4,0.3l-1.1-1.4l-0.9,0.4l-0.9,0.4l0.4,1.7c-0.4,0.3-0.7,0.6-1.1,0.9l-1.7-0.7l-0.9,1.1l-0.6,0.8l1.2,1.3
			c-0.2,0.4-0.4,0.9-0.5,1.3l-1.8,0.3l-0.1,1l-0.1,1l1.7,0.5c0,0.5,0.1,0.9,0.3,1.4l-1.4,1.1l0.4,0.9l0.4,0.9l1.7-0.4
			c0.3,0.4,0.6,0.7,0.9,1.1l-0.7,1.7l0.8,0.6l0.8,0.6l1.3-1.2c0.4,0.2,0.9,0.4,1.3,0.5l0.3,1.8l1,0.1l1,0.1l0.5-1.7
			c0.5,0,0.9-0.1,1.4-0.3l1.4,1.1L-147.4,308.6z M-155.3,305.4c-3-2.1-3.8-6.2-1.8-9.2c2.1-3,6.2-3.8,9.2-1.8c3,2.1,3.8,6.2,1.8,9.2
			S-152.3,307.4-155.3,305.4z"/>
		<path class="st0" d="M-150.5,283.8c2.8,1.9,6.5,1.2,8.4-1.6c1.9-2.8,1.2-6.5-1.6-8.4c-2.8-1.9-6.5-1.2-8.4,1.6
			C-154,278.1-153.3,281.9-150.5,283.8z M-151.7,275.7c1.7-2.5,5.1-3.1,7.6-1.5c2.5,1.7,3.1,5.1,1.5,7.6c-1.7,2.5-5.1,3.1-7.6,1.5
			C-152.7,281.6-153.3,278.2-151.7,275.7z"/>
		<path class="st0" d="M-154.8,281l-1.4,1.1l0.4,0.9l0.4,0.9l1.7-0.4c0.3,0.4,0.6,0.7,0.9,1.1l-0.7,1.7l0.8,0.6l0.8,0.6l1.3-1.2
			c0.4,0.2,0.9,0.4,1.3,0.5l0.3,1.8l1,0.1l1,0.1l0.5-1.7c0.5,0,0.9-0.1,1.4-0.3l1.1,1.4l0.9-0.4l0.9-0.4l-0.4-1.7
			c0.4-0.3,0.7-0.6,1.1-0.9l1.7,0.7l0.6-0.8l0.6-0.8l-1.2-1.3c0.2-0.4,0.4-0.9,0.5-1.3l1.8-0.3l0.1-1l0.1-1l-1.7-0.5
			c0-0.5-0.1-0.9-0.3-1.4l1.4-1.1l-0.6-1.4l-0.4-0.9l-1.7,0.4c-0.3-0.4-0.6-0.7-0.9-1.1l0.7-1.7l-0.8-0.6l-0.9-0.5l-1.3,1.3
			c-0.4-0.2-0.9-0.4-1.3-0.5l-0.3-1.8l-1-0.1l-1-0.1l-0.5,1.7c-0.5,0-0.9,0.1-1.4,0.3l-1.1-1.4l-0.9,0.4l-0.9,0.5l0.4,1.7
			c-0.4,0.3-0.7,0.6-1.1,0.9l-1.7-0.6l-0.6,0.8l-0.6,0.8l1.2,1.3c-0.2,0.4-0.4,0.9-0.5,1.3l-1.8,0.3l-0.1,1l-0.1,1l1.7,0.5
			C-155.1,280-155,280.5-154.8,281z M-152.6,275c2.1-3,6.2-3.8,9.2-1.8c3,2.1,3.8,6.2,1.8,9.2c-2.1,3-6.2,3.8-9.2,1.8
			C-153.9,282.2-154.7,278.1-152.6,275z"/>
		<path class="st0" d="M-175.6,288.9c3.7,2.5,8.8,1.6,11.3-2.2c2.5-3.7,1.6-8.8-2.2-11.3c-3.7-2.5-8.8-1.6-11.3,2.2
			C-180.3,281.3-179.3,286.4-175.6,288.9z M-177.1,278c2.3-3.4,6.9-4.2,10.2-2c3.4,2.3,4.3,6.9,2,10.2c-2.3,3.4-6.9,4.2-10.2,2
			C-178.5,286-179.4,281.4-177.1,278z"/>
		<path class="st0" d="M-182.7,287.8l0.6,1.2l2.4-0.6c0.4,0.5,0.8,1,1.3,1.5l-0.9,2.3l1.1,0.8l1.1,0.8l1.8-1.7
			c0.6,0.3,1.2,0.5,1.8,0.6l0.3,2.4l1.3,0.1l1.3,0.1l0.7-2.3c0.6-0.1,1.3-0.2,1.9-0.4l1.5,1.9l1.2-0.6l1.2-0.6l-0.6-2.4
			c0.5-0.4,1-0.8,1.5-1.3l2.3,0.9l0.8-1.1l0.8-1.1l-1.7-1.8c0.3-0.6,0.5-1.2,0.6-1.8l2.4-0.3l0.1-1.3l0.1-1.3l-2.3-0.7
			c-0.1-0.6-0.2-1.3-0.4-1.9l1.9-1.5l-0.6-1.2l-0.6-1.2l-2.4,0.6c-0.4-0.5-0.8-1-1.3-1.5l0.9-2.3l-1.1-0.8l-1.1-0.8l-1.8,1.7
			c-0.6-0.3-1.2-0.5-1.8-0.6l-0.3-2.4l-1.3-0.1l-1.3-0.1l-0.7,2.3c-0.6,0.1-1.3,0.2-1.9,0.4l-1.6-1.9l-1.2,0.6l-1.2,0.6l0.6,2.4
			c-0.5,0.4-1,0.8-1.5,1.3l-2.3-0.9l-0.8,1.1l-0.8,1.1l1.7,1.8c-0.3,0.6-0.5,1.2-0.6,1.8l-2.4,0.3l-0.1,1.3l-0.1,1.3l2.3,0.7
			c0.2,0.7,0.3,1.3,0.5,1.9l-1.9,1.5L-182.7,287.8z M-178.4,277.1c2.8-4.1,8.3-5.2,12.4-2.4c4.1,2.8,5.2,8.3,2.4,12.4
			s-8.3,5.2-12.4,2.4C-180.1,286.8-181.2,281.2-178.4,277.1z"/>
		<path class="st0" d="M-212.4,299.9h-6.7l-12.3,14.7l1.1,4.7h11.5v4.6h6.4v-4.6h3v-5h-3V299.9z M-218.8,314.3h-5.7l5.7-6.8V314.3z"
			/>
		<path class="st0" d="M-196,299.5c-6.8,0-11,5.6-11,12.4v0.1c0,6.8,4.2,12.3,11,12.3s11-5.6,11-12.4v-0.1
			C-185,305.1-189.2,299.5-196,299.5z M-191.6,312c0,3.8-1.7,6.5-4.4,6.5s-4.4-2.7-4.4-6.6c0-3.8,1.7-6.5,4.4-6.5
			C-193.4,305.4-191.6,308.2-191.6,312L-191.6,312z"/>
		<path class="st0" d="M-164.1,299.9h-6.7l-12.3,14.7l1.1,4.7h11.5v4.6h6.4v-4.6h3v-4.9h-3V299.9z M-170.5,314.3h-5.7l5.7-6.8V314.3
			z"/>
	</g>
</g>
</svg>
