<?xml version="1.0" encoding="utf-8"?>
<!-- Generator: Adobe Illustrator 19.1.0, SVG Export Plug-In . SVG Version: 6.00 Build 0)  -->
<!DOCTYPE svg PUBLIC "-//W3C//DTD SVG 1.1//EN" "http://www.w3.org/Graphics/SVG/1.1/DTD/svg11.dtd">
<svg version="1.1" xmlns="http://www.w3.org/2000/svg" xmlns:xlink="http://www.w3.org/1999/xlink" x="0px" y="0px"
	 viewBox="0 0 375 63.7" style="enable-background:new 0 0 375 63.7;" xml:space="preserve">
<style type="text/css">
	.st0{fill:#FFFFFF;}
</style>
<g id="Layer_1">
</g>
<g id="_x2014_ÎÓÈ_x5F_1">
	<g>
		<polygon class="st0" points="5.5,51.5 5.5,51.6 145,51.6 145,45.9 5.5,45.9 		"/>
		<polygon class="st0" points="232.4,45.9 232.4,51.6 371.9,51.5 371.9,45.9 		"/>
		<path class="st0" d="M233.1,28.3c-2.8-1.9-6.5-1.2-8.4,1.6c-1.9,2.8-1.2,6.5,1.6,8.4c2.8,1.9,6.5,1.2,8.4-1.6
			C236.6,33.9,235.9,30.2,233.1,28.3z M226.7,37.8c-2.5-1.7-3.1-5.1-1.5-7.6c1.6-2.5,5.1-3.1,7.6-1.5c2.5,1.7,3.1,5.1,1.5,7.6
			C232.6,38.8,229.2,39.5,226.7,37.8z"/>
		<path class="st0" d="M233.9,42l0.9-0.4l-0.4-1.7c0.4-0.3,0.7-0.6,1.1-0.9l1.7,0.7l0.6-0.8l0.6-0.8l-1.2-1.3
			c0.2-0.4,0.4-0.9,0.5-1.3l1.8-0.3l0.1-1l0.1-1l-1.7-0.5c0-0.5-0.1-0.9-0.3-1.4l1.4-1.1l-0.4-0.9l-0.4-0.9l-1.7,0.4
			c-0.3-0.4-0.6-0.7-0.9-1.1l0.7-1.7l-0.8-0.6l-0.8-0.6l-1.3,1.2c-0.4-0.2-0.9-0.4-1.3-0.5l-0.3-1.8l-1-0.1l-1-0.1l-0.5,1.7
			c-0.5,0-0.9,0.1-1.4,0.3l-1.1-1.4l-0.9,0.4l-0.9,0.4l0.4,1.7c-0.4,0.3-0.7,0.6-1.1,0.9l-1.7-0.7l-0.9,1.1l-0.6,0.8l1.2,1.3
			c-0.2,0.4-0.4,0.9-0.5,1.3l-1.8,0.3l-0.1,1l-0.1,1l1.7,0.5c0,0.5,0.1,0.9,0.3,1.4l-1.4,1.1l0.4,0.9l0.4,0.9L223,38
			c0.3,0.4,0.6,0.7,0.9,1.1l-0.7,1.7l0.8,0.6l0.8,0.6l1.3-1.2c0.4,0.2,0.9,0.4,1.3,0.5l0.3,1.8l1,0.1l1,0.1l0.5-1.7
			c0.5,0,0.9-0.1,1.4-0.3l1.4,1.1L233.9,42z M226,38.8c-3-2.1-3.8-6.2-1.8-9.2c2.1-3,6.2-3.8,9.2-1.8c3,2.1,3.8,6.2,1.8,9.2
			S229,40.8,226,38.8z"/>
		<path class="st0" d="M230.8,17.2c2.8,1.9,6.5,1.2,8.4-1.6c1.9-2.8,1.2-6.5-1.6-8.4c-2.8-1.9-6.5-1.2-8.4,1.6
			C227.3,11.5,228,15.3,230.8,17.2z M229.6,9.1c1.7-2.5,5.1-3.1,7.6-1.5c2.5,1.7,3.1,5.1,1.5,7.6c-1.7,2.5-5.1,3.1-7.6,1.5
			C228.6,15,228,11.6,229.6,9.1z"/>
		<path class="st0" d="M226.5,14.4l-1.4,1.1l0.4,0.9l0.4,0.9l1.7-0.4c0.3,0.4,0.6,0.7,0.9,1.1l-0.7,1.7l0.8,0.6l0.8,0.6l1.3-1.2
			c0.4,0.2,0.9,0.4,1.3,0.5l0.3,1.8l1,0.1l1,0.1l0.5-1.7c0.5,0,0.9-0.1,1.4-0.3l1.1,1.4l0.9-0.4l0.9-0.4l-0.4-1.7
			c0.4-0.3,0.7-0.6,1.1-0.9l1.7,0.7l0.6-0.8l0.6-0.8l-1.2-1.3c0.2-0.4,0.4-0.9,0.5-1.3l1.8-0.3l0.1-1l0.1-1l-1.7-0.5
			c0-0.5-0.1-0.9-0.3-1.4l1.4-1.1L242.8,8l-0.4-0.9l-1.7,0.4c-0.3-0.4-0.6-0.7-0.9-1.1l0.7-1.7l-0.8-0.6l-0.9-0.5l-1.3,1.3
			c-0.4-0.2-0.9-0.4-1.3-0.5l-0.3-1.8l-1-0.1l-1-0.1l-0.5,1.7c-0.5,0-0.9,0.1-1.4,0.3L230.9,3L230,3.4l-0.9,0.5l0.4,1.7
			c-0.4,0.3-0.7,0.6-1.1,0.9l-1.7-0.6l-0.6,0.8l-0.6,0.8l1.2,1.3c-0.2,0.4-0.4,0.9-0.5,1.3l-1.8,0.3l-0.1,1l-0.1,1l1.7,0.5
			C226.2,13.4,226.3,13.9,226.5,14.4z M228.7,8.4c2.1-3,6.2-3.8,9.2-1.8c3,2.1,3.8,6.2,1.8,9.2c-2.1,3-6.2,3.8-9.2,1.8
			C227.4,15.6,226.6,11.5,228.7,8.4z"/>
		<path class="st0" d="M205.7,22.3c3.7,2.5,8.8,1.6,11.3-2.2c2.5-3.7,1.6-8.8-2.2-11.3c-3.7-2.5-8.8-1.6-11.3,2.2
			C201,14.7,202,19.8,205.7,22.3z M204.2,11.4c2.3-3.4,6.9-4.2,10.2-2c3.4,2.3,4.3,6.9,2,10.2c-2.3,3.4-6.9,4.2-10.2,2
			C202.8,19.4,201.9,14.8,204.2,11.4z"/>
		<path class="st0" d="M198.6,21.2l0.6,1.2l2.4-0.6c0.4,0.5,0.8,1,1.3,1.5l-0.9,2.3l1.1,0.8l1.1,0.8l1.8-1.7
			c0.6,0.3,1.2,0.5,1.8,0.6l0.3,2.4l1.3,0.1l1.3,0.1l0.7-2.3c0.6-0.1,1.3-0.2,1.9-0.4l1.5,1.9l1.2-0.6l1.2-0.6l-0.6-2.4
			c0.5-0.4,1-0.8,1.5-1.3l2.3,0.9l0.8-1.1l0.8-1.1l-1.7-1.8c0.3-0.6,0.5-1.2,0.6-1.8l2.4-0.3l0.1-1.3l0.1-1.3l-2.3-0.7
			c-0.1-0.6-0.2-1.3-0.4-1.9l1.9-1.5l-0.6-1.2l-0.6-1.2l-2.4,0.6c-0.4-0.5-0.8-1-1.3-1.5l0.9-2.3l-1.1-0.8l-1.1-0.8l-1.8,1.7
			c-0.6-0.3-1.2-0.5-1.8-0.6l-0.3-2.4l-1.3-0.1L210,2.4l-0.7,2.3c-0.6,0.1-1.3,0.2-1.9,0.4l-1.6-1.9l-1.2,0.6l-1.2,0.6l0.6,2.4
			c-0.5,0.4-1,0.8-1.5,1.3l-2.3-0.9l-0.8,1.1l-0.8,1.1l1.7,1.8c-0.3,0.6-0.5,1.2-0.6,1.8l-2.4,0.3l-0.1,1.3l-0.1,1.3l2.3,0.7
			c0.2,0.7,0.3,1.3,0.5,1.9L198,20L198.6,21.2z M202.9,10.5c2.8-4.1,8.3-5.2,12.4-2.4c4.1,2.8,5.2,8.3,2.4,12.4
			c-2.8,4.1-8.3,5.2-12.4,2.4C201.2,20.2,200.1,14.6,202.9,10.5z"/>
		<path class="st0" d="M168.9,33.3h-6.7L149.9,48l1.1,4.7h11.5v4.6h6.4v-4.6h3v-5h-3V33.3z M162.5,47.7h-5.7l5.7-6.8V47.7z"/>
		<path class="st0" d="M185.3,32.9c-6.8,0-11,5.6-11,12.4v0.1c0,6.8,4.2,12.3,11,12.3s11-5.6,11-12.4v-0.1
			C196.3,38.5,192.1,32.9,185.3,32.9z M189.7,45.4c0,3.8-1.7,6.5-4.4,6.5s-4.4-2.7-4.4-6.6c0-3.8,1.7-6.5,4.4-6.5
			C187.9,38.8,189.7,41.6,189.7,45.4L189.7,45.4z"/>
		<path class="st0" d="M217.2,33.3h-6.7L198.2,48l1.1,4.7h11.5v4.6h6.4v-4.6h3v-4.9h-3V33.3z M210.8,47.7h-5.7l5.7-6.8V47.7z"/>
	</g>
</g>
</svg>
