<?xml version="1.0" encoding="utf-8"?>
<!-- Generator: Adobe Illustrator 19.1.0, SVG Export Plug-In . SVG Version: 6.00 Build 0)  -->
<!DOCTYPE svg PUBLIC "-//W3C//DTD SVG 1.1//EN" "http://www.w3.org/Graphics/SVG/1.1/DTD/svg11.dtd">
<svg version="1.1" xmlns="http://www.w3.org/2000/svg" xmlns:xlink="http://www.w3.org/1999/xlink" x="0px" y="0px"
	 viewBox="0 0 375 63.7" style="enable-background:new 0 0 375 63.7;" xml:space="preserve">
<style type="text/css">
	.st0{fill:#FFFFFF;}
</style>
<g id="Layer_1">
</g>
<g id="_x2014_ÎÓÈ_x5F_1">
	<path class="st0" d="M165.5,25.9c1.4,0,2.5-1.1,2.5-2.5s-1.1-2.5-2.5-2.5h-15c0-2.7-0.1-5.5-0.1-8.2c-3.8-0.6-7.5-0.6-11.3,0v36.7
		c3.8,0.6,7.5,0.6,11.3,0c0-2.7,0.1-5.5,0.1-8.2h15c1.4,0,2.5-1.1,2.5-2.5s-1.1-2.5-2.5-2.5h-15c0-3.4,0-6.7,0-10.1h15V25.9z"/>
	<path class="st0" d="M5.7,33.7h105.5c0,2.7,0.1,5.4,0.3,8.1c8.7,0.6,17.2,1.5,25.6,3.5V16.5c-8.3,2-16.9,2.9-25.6,3.5
		c-0.1,2.7-0.2,5.4-0.2,8.1L5.7,28.2L5.7,33.7z"/>
	<path class="st0" d="M214.5,12.5v36.8c3.6,0.6,11.6,0.5,15.2-0.1V12.5C226,11.9,218.1,11.9,214.5,12.5z"/>
	<path class="st0" d="M372,28.2l-115.8-0.1c1.4-2.7,1.3-5.4,1.1-8.1c-8.7-0.6-17.2-1.5-25.6-3.5v28.8c8.3-2,16.9-2.9,25.6-3.5
		c0.2-2.7,0.3-5.4,0.3-8.1h114.5L372,28.2z"/>
	<polygon class="st0" points="199.5,13.7 188.9,24.3 178.3,13.7 171.7,20.3 182.3,30.9 171.7,41.5 178.3,48.1 188.9,37.5 
		199.5,48.1 206.1,41.5 195.5,30.9 206.1,20.3 	"/>
</g>
</svg>
