<?xml version="1.0" encoding="utf-8"?>
<!-- Generator: Adobe Illustrator 19.1.0, SVG Export Plug-In . SVG Version: 6.00 Build 0)  -->
<!DOCTYPE svg PUBLIC "-//W3C//DTD SVG 1.1//EN" "http://www.w3.org/Graphics/SVG/1.1/DTD/svg11.dtd">
<svg version="1.1" id="Layer_1" xmlns="http://www.w3.org/2000/svg" xmlns:xlink="http://www.w3.org/1999/xlink" x="0px" y="0px"
	 viewBox="-317 246.9 206.3 102.4" style="enable-background:new -317 246.9 206.3 102.4;" xml:space="preserve">
<style type="text/css">
	.st0{fill:#FFFFFF;}
	.st1{fill:#F18B00;}
	.st2{fill:#144733;}
	.st3{fill:#343B3A;}
</style>
<rect x="-312.8" y="250.9" class="st0" width="197.9" height="95.3"/>
<path class="st1" d="M-209.9,343.6h90c1.4,0,2.6-1.1,2.6-2.6v-85.2c0-1.4-1.1-2.6-2.6-2.6h-90c-1.4,0-2.6,1.1-2.6,2.6v87.7H-209.9z"
	/>
<path class="st2" d="M-217.8,343.6h-90c-1.4,0-2.6-1.1-2.6-2.6v-85.2c0-1.4,1.1-2.6,2.6-2.6h90c1.4,0,2.6,1.1,2.6,2.6v87.7H-217.8z"
	/>
<g>
	<rect x="-234.5" y="267.7" class="st0" width="41.4" height="12.5"/>
	<rect x="-220.2" y="253.3" class="st0" width="12.8" height="41.4"/>
</g>
<path class="st0" d="M-284.9,326.1l-6.7-8.9h-0.1v8.9h-4.2v-21.4h4.2v8.5h0.1l6.4-8.5h5l-8,10.4l8.6,11H-284.9z M-278.3,326.1h3.9
	v-21.7h-3.9V326.1z M-265.8,316.3c1.9,0,2.8,1.2,3.1,2.4h-6.3C-268.7,317.4-267.7,316.3-265.8,316.3 M-258.8,321v-1.5
	c0-3.4-2.9-6.4-7-6.4c-4.4,0-7.2,2.8-7.2,6.7c0,3.9,2.8,6.7,7.2,6.7c3.1,0,5-0.7,6.6-2.9l-2.9-1.5c-1.2,1.2-2.1,1.5-3.7,1.5
	c-1.6,0-2.8-1.2-3.1-2.7H-258.8z M-248.2,320.7c-0.3,1.5-2.2,3-3.8,3c-1.3,0-1.9-0.6-1.9-1.2c0-1.2,0.6-1.8,3.1-1.8H-248.2z
	 M-248.2,326.1h3.8v-8.3c0-4.2-2.8-4.6-5-4.6c-3.1,0-5.3,0.4-7.5,1.3l0.9,2.7c1.3-0.6,3.1-1.2,5.9-1.2c1.3,0,1.9,0.3,1.9,2.4h-2.5
	c-4.4,0-7.2,0.9-7.2,4.5c0,2.6,2.2,3.7,5,3.7c1.9,0,3.4-0.4,4.6-1.6h0.1V326.1z M-230,326.1v-8c0-3.3-1.7-4.9-4.8-4.9
	c-1.6,0-3.2,0.4-4.2,1.6h-0.1v-1.2h-3.9v12.5h3.9v-6.8c0-1.5,1.1-2.7,2.7-2.7c1.9,0,2.5,0.9,2.5,2.7v6.8H-230z"/>
<g>
	<path class="st3" d="M-137.4,304.1c-0.1-0.1-0.3-0.2-0.4-0.2h-14.5h-7.9c2.3,0.4,4.1,1.3,5.1,2.5c0.6,0.7,1,1.6,1,2.6h1.1h5.6
		c-0.8,1-6.2,7.6-9.8,12.1c-1.7,2.1-3,3.7-3.3,4.1c0,0,0,0,0,0c0,0,0,0,0,0.1c0,0,0,0,0,0c-0.1,0.1-0.1,0.2-0.1,0.3
		c0,0.1,0,0.2,0.1,0.2c0.1,0.2,0.3,0.3,0.5,0.3h8.2c0.2,0,0.3-0.1,0.4-0.2l13.4-16.6c0.1-0.1,0.1-0.2,0.1-0.2l0.9-4.6
		C-137.3,304.4-137.3,304.2-137.4,304.1"/>
	<path class="st3" d="M-169.7,309.2c-1.7,0.3-3.3,0.8-4.3,1.2c-0.2,0.1-0.4,0-0.5-0.1c-0.2-0.1-0.2-0.3-0.2-0.5l0.8-4.4
		c0-0.2,0.2-0.4,0.4-0.5c1.8-0.5,3.5-0.9,5.1-1.2h-21.6c-0.3,0-0.5,0.2-0.5,0.4l-0.8,4c0,0.2,0,0.3,0.1,0.4c0.1,0.1,0.3,0.2,0.4,0.2
		h11.7c-1.3,1.6-13.3,16.3-13.3,16.3c-0.1,0.1-0.1,0.2-0.1,0.3c0,0.1,0,0.2,0.1,0.2c0.1,0.2,0.3,0.3,0.5,0.3h8.2
		c0.2,0,0.3-0.1,0.4-0.2l13.4-16.7C-169.7,309.3-169.7,309.3-169.7,309.2"/>
	<path class="st0" d="M-160.8,325.9c0-0.1-0.1-0.2-0.1-0.2c0-0.1,0-0.2,0.1-0.3c0,0,1.5-1.8,3.4-4.2h-6.1h0h-2.2
		c0.2-0.1,0.5-0.3,0.5-0.3c6.6-3.8,10.3-7.3,10.9-10.4c0.1-0.4,0.1-0.8,0.1-1.1c0-1.1-0.3-2.1-1-2.9c-1.6-1.9-4.8-2.9-9.4-2.9
		c-2.6,0-5.5,0.7-8.9,1.5c-0.2,0.1-0.4,0.2-0.4,0.5l-0.8,4.4c0,0.2,0.1,0.4,0.2,0.5c0.2,0.1,0.4,0.1,0.5,0.1
		c1.8-0.7,5.3-1.7,7.8-1.7c1.4,0,2.3,0.3,2.8,0.8c0.3,0.3,0.3,0.7,0.2,1.2c-0.5,2.4-7.1,6.2-12.9,9.5l-1.4,0.8
		c-0.1,0.1-0.2,0.2-0.3,0.4l-0.8,4c0,0.2,0,0.3,0.1,0.4c0.1,0.1,0.3,0.2,0.4,0.2h13.6h3.9C-160.6,326.2-160.7,326.1-160.8,325.9"/>
</g>
</svg>
